<svg id="Lag_1" data-name="Lag 1" xmlns="http://www.w3.org/2000/svg" viewBox="0 0 298.33 239.34"><title>pilfrem</title><path d="M322.45,194.15c.19-.26.39-.51.57-.78s.34-.55.51-.83.29-.48.43-.73.28-.58.42-.87.25-.52.36-.79.22-.57.32-.86.21-.57.3-.87.15-.58.23-.87.15-.59.21-.9.11-.69.16-1,.09-.5.11-.76c.06-.62.1-1.23.1-1.85s0-1.23-.1-1.85c0-.25-.07-.5-.1-.75s-.1-.71-.17-1.06-.14-.58-.21-.87-.14-.6-.23-.9-.2-.56-.3-.84-.2-.59-.32-.88-.23-.51-.35-.77-.28-.6-.43-.89-.28-.47-.42-.7-.33-.59-.52-.87-.36-.48-.53-.72-.36-.5-.56-.75c-.33-.4-.69-.78-1.05-1.16l-.18-.2h0l-101-101a18.68,18.68,0,1,0-26.42,26.42l69.1,69.1H46.51a18.68,18.68,0,0,0,0,37.36H262.39l-69.1,69.1a18.68,18.68,0,0,0,26.42,26.42l101-101h0l.05-.06c.41-.42.81-.85,1.18-1.31C322.12,194.62,322.28,194.38,322.45,194.15Z" transform="translate(-27.83 -63.33)"/></svg>