<svg id="Lag_1" data-name="Lag 1" xmlns="http://www.w3.org/2000/svg" viewBox="0 0 304.36 430.28"><title>samtaleikon</title><path d="M157,432H45.62l-7.2-36A19.78,19.78,0,0,1,53,372.91l13.33-3.33a46.23,46.23,0,0,0,79.69.11l13.19,3.22a19.66,19.66,0,0,1,9.43,5.44,45.59,45.59,0,0,1,11-7.48,33,33,0,0,0-17.3-10.78l-24-5.87V338.87a46.09,46.09,0,0,0,14.07-33.17V279.28a46.05,46.05,0,0,0-1-9.6l.33-.17h-.29a47.1,47.1,0,0,0-35.65-35.44,46.14,46.14,0,0,0-55.74,45.21V305.7A46,46,0,0,0,73.32,338v16.24L49.84,360.1a33,33,0,0,0-24.37,38.5l8.27,41.34a6.59,6.59,0,0,0,6.47,5.31H159.62Zm-50.74-52.82a33,33,0,0,1-26.28-13l1.47-.37a6.59,6.59,0,0,0,5-6.4v-12a46.24,46.24,0,0,0,38.76.4v11.55a6.6,6.6,0,0,0,5,6.41l2.17.53A33,33,0,0,1,106.24,379.22Zm0-133a33,33,0,0,1,26.41,13.21,33.15,33.15,0,0,1-26.41,13.2H73.89A33.07,33.07,0,0,1,106.24,246.27Zm-33,59.43V285.89h33a46.35,46.35,0,0,0,32.35-13.23,32.91,32.91,0,0,1,.76,6.62V305.7a33.06,33.06,0,0,1-66.12,0Z" transform="translate(-24.82 -34.86)"/><path d="M128.56,405.63a6.61,6.61,0,0,0,0,13.21h13.21a6.61,6.61,0,0,0,0-13.21Z" transform="translate(-24.82 -34.86)"/><path d="M328.53,418.49l-8.26,41.34a6.61,6.61,0,0,1-6.48,5.31H181.92a6.59,6.59,0,0,1-6.47-5.31l-8.27-41.34A33,33,0,0,1,191.55,380L215,374.14V357.9a46,46,0,0,1-13.21-32.31V299.17A46.14,46.14,0,0,1,257.56,254a47.1,47.1,0,0,1,35.65,35.44h.29l-.33.17a46.05,46.05,0,0,1,1,9.6v26.42a46.09,46.09,0,0,1-14.07,33.17v15.35l24,5.87A33,33,0,0,1,328.53,418.49Zm-34.35,7M248,266.16a33.07,33.07,0,0,0-32.35,26.41H248a33.15,33.15,0,0,0,26.41-13.2A33,33,0,0,0,248,266.16Zm-33,59.43a33.06,33.06,0,0,0,66.12,0V299.17a33.65,33.65,0,0,0-.75-6.62A46.37,46.37,0,0,1,248,305.78h-33v19.81Zm57,60.12a6.6,6.6,0,0,1-5-6.41V367.75a46.26,46.26,0,0,1-38.77-.4V379.3a6.59,6.59,0,0,1-5,6.4l-1.48.37a33,33,0,0,0,52.44.17l-2.17-.53Zm43.64,30.19A19.78,19.78,0,0,0,301,392.8l-13.19-3.22a46.23,46.23,0,0,1-79.69-.11l-13.33,3.33a19.78,19.78,0,0,0-14.62,23.1l7.21,36h121l7.2-36Zm0,0" transform="translate(-24.82 -34.86)"/><path d="M268.11,87.69H221.89v-33a19.84,19.84,0,0,0-19.81-19.81H82.34A19.83,19.83,0,0,0,62.53,54.67v79.24a19.82,19.82,0,0,0,19.81,19.81h6.6v19.81A6.62,6.62,0,0,0,99.21,179l29.35-19.57v27.28a19.84,19.84,0,0,0,19.81,19.81h64.92l38,25.3a6.61,6.61,0,0,0,10.27-5.49V206.55h6.6a19.84,19.84,0,0,0,19.81-19.81V107.5a19.83,19.83,0,0,0-19.81-19.81ZM131.48,141.64a0,0,0,0,0,0,0l-29.32,19.54V147.12a6.61,6.61,0,0,0-6.61-6.61H82.34a6.62,6.62,0,0,1-6.61-6.6V54.67a6.62,6.62,0,0,1,6.61-6.6H202.08a6.61,6.61,0,0,1,6.6,6.6v79.24a6.61,6.61,0,0,1-6.6,6.6H135.16a6.72,6.72,0,0,0-3.68,1.13Zm143.24,45.1a6.62,6.62,0,0,1-6.61,6.6h-13.2A6.61,6.61,0,0,0,248.3,200V214L219,194.45a6.64,6.64,0,0,0-3.66-1.11H148.37a6.61,6.61,0,0,1-6.6-6.6v-33h60.31a19.83,19.83,0,0,0,19.81-19.81v-33h46.22a6.62,6.62,0,0,1,6.61,6.61Zm0,0" transform="translate(-24.82 -34.86)"/><path d="M148.37,100.89H95.54a6.61,6.61,0,0,0,0,13.21h52.83a6.61,6.61,0,0,0,0-13.21Zm0,0" transform="translate(-24.82 -34.86)"/><path d="M188.87,74.48H95.54a6.61,6.61,0,0,0,0,13.21h93.33a6.61,6.61,0,1,0,0-13.21Zm0,0" transform="translate(-24.82 -34.86)"/></svg>