<svg id="Lag_1" data-name="Lag 1" xmlns="http://www.w3.org/2000/svg" viewBox="0 0 287.08 287.08"><title>sendsmsikon</title><path d="M123.5,309.07A135.14,135.14,0,0,1,50.93,236.5a9.09,9.09,0,0,0-16.75,7.08,156.46,156.46,0,0,0,82.24,82.24,9.09,9.09,0,0,0,7.08-16.75Zm0,0" transform="translate(-33.46 -39.46)"/><path d="M237.58,40.18a9.09,9.09,0,0,0-7.08,16.75,135.14,135.14,0,0,1,72.57,72.57,9.09,9.09,0,0,0,16.75-7.08,156.46,156.46,0,0,0-82.24-82.24Zm0,0" transform="translate(-33.46 -39.46)"/><path d="M223.4,73.7a9.09,9.09,0,0,0-7.1,16.74,99,99,0,0,1,53.26,53.25,9.09,9.09,0,1,0,16.74-7.09,118.74,118.74,0,0,0-62.9-62.9Zm0,0" transform="translate(-33.46 -39.46)"/><path d="M84.44,222.3a9.09,9.09,0,0,0-16.74,7.1,118.74,118.74,0,0,0,62.9,62.9,9.09,9.09,0,0,0,7.1-16.74A99,99,0,0,1,84.44,222.3Zm0,0" transform="translate(-33.46 -39.46)"/><path d="M125.48,67.4,61.4,131.48a27.3,27.3,0,0,0,0,38.56L190,298.6a27.3,27.3,0,0,0,38.56,0l64.08-64.08a27.3,27.3,0,0,0,0-38.56L164,67.4a27.3,27.3,0,0,0-38.56,0ZM74.26,157.19a9.1,9.1,0,0,1,0-12.86l64.08-64.08a9.1,9.1,0,0,1,12.86,0L163,92,86,169Zm24.63,24.63,76.93-76.93,79.29,79.29-76.93,76.93Zm180.86,27a9.11,9.11,0,0,1,0,12.86l-64.08,64.08a9.1,9.1,0,0,1-12.85,0L191,274,268,197Zm0,0" transform="translate(-33.46 -39.46)"/></svg>